<?xml version="1.0" encoding="utf-8"?>
<!-- Generator: Adobe Illustrator 17.0.0, SVG Export Plug-In . SVG Version: 6.00 Build 0)  -->
<!DOCTYPE svg PUBLIC "-//W3C//DTD SVG 1.1//EN" "http://www.w3.org/Graphics/SVG/1.1/DTD/svg11.dtd">
<svg version="1.1" id="Capa_1" xmlns="http://www.w3.org/2000/svg" xmlns:xlink="http://www.w3.org/1999/xlink" x="0px" y="0px"
	 width="134.312px" height="95px" viewBox="0 0 134.312 95" enable-background="new 0 0 134.312 95" xml:space="preserve">
<g>
	<g>
		<path fill="#4B4B4A" d="M74.664,82.521c0-2.174,1.12-3.343,3.343-3.343c0.496,0,1.119,0.065,1.903,0.209v-3.024
			c0-0.368,0.112-0.495,0.48-0.495h0.879c0.369,0,0.495,0.127,0.495,0.495v10.188c0,0.511-0.126,0.671-0.638,0.879
			c-0.911,0.336-1.903,0.513-2.991,0.513c-2.319,0-3.471-1.072-3.471-3.231V82.521z M79.91,81.083
			c-0.64-0.143-1.151-0.207-1.55-0.207c-1.232,0-1.84,0.559-1.84,1.695v2.078c0,1.073,0.592,1.6,1.791,1.6
			c0.559,0,1.056-0.063,1.471-0.176c0.081-0.031,0.127-0.096,0.127-0.175V81.083z"/>
		<path fill="#4B4B4A" d="M83.3,82.634c0-2.239,1.296-3.455,3.711-3.455c2.431,0,3.696,1.377,3.696,3.312v0.975
			c0,0.464-0.242,0.688-0.722,0.688h-4.829v0.592c0,1.039,0.656,1.599,1.823,1.599c0.896,0,1.521-0.288,1.888-0.847
			c0.256-0.369,0.432-0.401,0.815-0.193l0.56,0.304c0.367,0.176,0.431,0.432,0.192,0.8c-0.624,1.023-1.774,1.535-3.454,1.535
			c-2.495,0-3.679-1.328-3.679-3.423V82.634z M88.851,82.378c0-1.039-0.624-1.631-1.84-1.631c-1.199,0-1.855,0.591-1.855,1.631
			v0.351h3.694V82.378z"/>
		<path fill="#4B4B4A" d="M95.535,80.268c0-2.576,1.649-4.159,4.575-4.159c2.272,0,3.728,0.895,4.351,2.671
			c0.127,0.334,0.015,0.576-0.336,0.703l-0.879,0.305c-0.386,0.128-0.545,0.048-0.689-0.336c-0.352-0.975-1.167-1.472-2.447-1.472
			c-1.648,0-2.557,0.801-2.557,2.272v3.534c0,1.472,0.91,2.287,2.557,2.287c1.264,0,2.079-0.495,2.447-1.487
			c0.176-0.4,0.321-0.48,0.704-0.336l0.864,0.303c0.351,0.129,0.463,0.369,0.351,0.705c-0.623,1.79-2.079,2.686-4.366,2.686
			c-2.926,0-4.575-1.568-4.575-4.175V80.268z"/>
		<path fill="#4B4B4A" d="M112.441,79.42c0.369,0,0.496,0.112,0.496,0.479v6.59c0,0.512-0.112,0.688-0.623,0.896
			c-0.944,0.368-1.983,0.56-3.136,0.56c-2.238,0-3.342-1.151-3.342-3.215v-4.831c0-0.367,0.129-0.479,0.495-0.479h0.88
			c0.368,0,0.48,0.112,0.48,0.479v4.767c0,1.056,0.576,1.583,1.743,1.583c0.561,0,1.04-0.063,1.471-0.191
			c0.112-0.049,0.176-0.129,0.176-0.272v-5.886c0-0.367,0.128-0.479,0.495-0.479H112.441z"/>
		<path fill="#4B4B4A" d="M121.367,79.42c0.367,0,0.495,0.112,0.495,0.479v8.077c0,2.192-1.104,3.487-3.518,3.487
			c-1.584,0-2.703-0.511-3.327-1.535c-0.224-0.353-0.16-0.623,0.209-0.8l0.606-0.335c0.385-0.192,0.56-0.144,0.8,0.193
			c0.336,0.542,0.894,0.815,1.679,0.815c1.137,0,1.695-0.576,1.695-1.728V87.32c-0.656,0.144-1.295,0.223-1.903,0.223
			c-2.239,0-3.342-1.151-3.342-3.215v-4.43c0-0.367,0.128-0.479,0.496-0.479h0.88c0.368,0,0.479,0.112,0.479,0.479v4.367
			c0,1.056,0.577,1.583,1.744,1.583c0.527,0,1.071-0.08,1.647-0.224v-5.726c0-0.367,0.129-0.479,0.496-0.479H121.367z"/>
		<path fill="#4B4B4A" d="M123.366,82.378c0-2,1.327-3.2,3.677-3.2c2.368,0,3.696,1.2,3.696,3.2v2.367
			c0,1.999-1.328,3.198-3.696,3.198c-2.35,0-3.677-1.199-3.677-3.198V82.378z M128.884,82.378c0-0.976-0.671-1.519-1.841-1.519
			c-1.167,0-1.821,0.544-1.821,1.519v2.367c0,0.959,0.655,1.519,1.821,1.519c1.17,0,1.841-0.561,1.841-1.519V82.378z"/>
	</g>
	<path fill="#4B4B4A" d="M10.374,31.272c1.727,0,2.284,0.559,2.284,2.286v28.984H25.5c1.617,0,2.286,0.668,2.286,2.284v3.734
		c0,1.729-0.554,2.285-2.286,2.285H5.858c-1.728,0-2.286-0.557-2.286-2.285V33.558c0-1.727,0.558-2.286,2.286-2.286H10.374z"/>
	<path fill="#4B4B4A" d="M54.322,41.863c1.501,0,2.006,0.501,2.006,2.063v22.518c0,1.839-0.391,2.507-2.174,3.233
		c-3.292,1.335-7.135,2.007-11.429,2.007c-8.026,0-12.04-3.846-12.04-11.541V43.926c0-1.563,0.503-2.063,2.064-2.063h4.29
		c1.561,0,2.066,0.501,2.066,2.063v15.939c0,2.787,1.56,4.181,4.736,4.181c1.281,0,2.508-0.111,3.679-0.39
		c0.278-0.112,0.389-0.333,0.389-0.612V43.926c0-1.563,0.503-2.063,2.064-2.063H54.322z"/>
	<path fill="#4B4B4A" d="M68.196,41.863c1.619,0,2.121,0.501,2.121,2.063v27.365c0,8.249-4.515,12.375-13.489,12.375
		c-1.618,0-2.119-0.5-2.119-2.119v-3.454c0-1.561,0.501-2.062,2.119-2.062c3.401,0,5.074-1.73,5.074-5.13V43.926
		c0-1.563,0.499-2.063,2.116-2.063H68.196z"/>
	<path fill="#4B4B4A" d="M90.831,30.665c1.493-0.823,2.62-0.771,3.392,0.101l1.901,2.209c0.872,1.079,0.926,1.593-0.258,2.055
		l-8.991,3.288c-1.18,0.409-1.95,0.359-2.361-0.155l-1.028-1.23c-0.772-0.978-0.772-1.493,0.1-1.954L90.831,30.665z"/>
	<path fill="#4B4B4A" d="M87.594,41.027c-5.908,0-9.863,1.951-11.928,5.795c-0.668,1.395-0.275,2.344,1.117,2.956l3.063,1.282
		c1.561,0.611,1.899,0.389,2.845-0.891c1.06-1.394,2.562-2.063,4.628-2.063c2.842,0,4.289,1.392,4.289,4.123v1.226
		c-1.169-0.055-2.508-0.11-3.955-0.11c-9.367,0-12.989,2.284-12.989,9.139c0,3.18,0.948,5.463,2.787,6.967
		c1.84,1.506,5.128,2.232,9.976,2.232c4.795,0,8.306-0.502,10.536-1.507c1.618-0.669,2.062-1.28,2.062-3.233V52.788
		C100.024,44.927,95.902,41.027,87.594,41.027z M91.608,64.548c0,0.168-0.114,0.334-0.388,0.389
		c-0.947,0.168-2.453,0.224-4.406,0.224c-2.896,0-3.734-0.948-3.734-2.73c0-1.728,0.892-2.675,3.847-2.675
		c0.559,0,1.393,0,2.508,0.054c1.114,0.055,1.841,0.055,2.174,0.055V64.548z"/>
	<path fill="#4B4B4A" d="M118.7,41.027c8.026,0,12.04,3.847,12.04,11.539v16.218c0,1.56-0.504,2.063-2.007,2.063h-4.347
		c-1.561,0-2.065-0.502-2.065-2.063v-15.94c0-2.788-1.562-4.181-4.736-4.181c-1.448,0-2.733,0.168-3.901,0.503
		c-0.114,0-0.168,0.056-0.168,0.222v19.396c0,1.56-0.504,2.063-2.065,2.063h-4.289c-1.56,0-2.064-0.502-2.064-2.063V46.266
		c0-1.839,0.447-2.509,2.232-3.233C110.562,41.694,114.35,41.027,118.7,41.027z"/>
	<path fill="#6EB5B2" d="M56.46,25.992c-0.771-2.017-2.398-3.563-4.979-4.731c-0.243-0.112-0.492-0.211-0.742-0.305
		c-0.028-0.01-0.057-0.021-0.084-0.031c-0.024-0.007-0.051-0.009-0.076-0.009c-0.177,0-0.322,0.127-0.352,0.296
		c0,0.04,0,0.083,0,0.123c0.002,0.178,0.005,0.349,0.011,0.512c0.06,1.395,0.241,2.754,0.535,4.025
		c0.222,1.006,0.559,1.777,0.997,2.307c0.517,0.629,1.218,1.197,2.084,1.698c0.652,0.365,1.433,0.674,2.315,0.925
		c0.028,0.008,0.056,0.015,0.084,0.023c0.019,0.004,0.036,0.006,0.056,0.006c0.144,0,0.268-0.086,0.322-0.21
		c0.012-0.041,0.021-0.085,0.033-0.127C57.054,28.853,56.987,27.368,56.46,25.992z"/>
	<path fill="#578D8B" d="M67.912,20.724c-0.002-0.031-0.003-0.062-0.005-0.092c-0.034-0.164-0.178-0.287-0.35-0.287
		c-0.046,0-0.09,0.01-0.13,0.026c-0.015,0.008-0.032,0.015-0.048,0.024c-0.974,0.484-1.815,0.947-2.491,1.377
		c-1.179,0.757-2.259,1.598-3.21,2.496c-0.753,0.706-1.25,1.384-1.482,2.03c-0.281,0.767-0.418,1.658-0.41,2.655
		c0.01,0.629,0.106,1.319,0.271,2.055c0.013,0.055,0.026,0.111,0.039,0.166c0.056,0.11,0.165,0.186,0.295,0.195
		c0.033-0.003,0.064-0.004,0.096-0.005c1.364-0.083,2.548-0.464,3.596-1.155c1.807-1.19,2.967-3.112,3.55-5.88
		C67.886,23.158,67.969,21.95,67.912,20.724z"/>
	<path fill="#4B4B4A" d="M71.175,37.731c-0.019-0.03-0.038-0.059-0.058-0.087c-0.408-0.616-0.833-1.208-1.286-1.752
		c-0.646-0.795-1.296-1.332-1.926-1.605c-0.749-0.329-1.633-0.524-2.626-0.578c-1.042-0.045-2.253,0.108-3.577,0.46
		c-0.004,0-0.006,0.001-0.009,0.001c-0.046,0.014-0.091,0.026-0.135,0.041c-0.113,0.06-0.189,0.176-0.189,0.314
		c0,0.04,0.007,0.079,0.02,0.115c0.022,0.038,0.043,0.074,0.062,0.111c0.832,1.49,1.897,2.544,3.225,3.197
		c1.766,0.873,3.799,0.961,6.178,0.29c0.062-0.019,0.124-0.036,0.186-0.055c0.103-0.062,0.169-0.174,0.169-0.303
		C71.208,37.826,71.198,37.776,71.175,37.731z"/>
	<path fill="#8F1F72" d="M82.15,15.094c-0.003-0.053-0.019-0.101-0.042-0.144c-0.061-0.11-0.178-0.186-0.312-0.186
		c-0.021,0-0.042,0.004-0.063,0.007c-0.033,0.006-0.068,0.017-0.097,0.032c-1.925,0.653-9.531,3.48-10.967,4.094
		c-0.029,0.012-0.057,0.023-0.085,0.036c-0.1,0.061-0.17,0.169-0.175,0.293c0,0.005-0.001,0.009-0.001,0.014
		c0,0.034,0.006,0.066,0.015,0.097c0.221,1.884,0.153,3.742-0.237,5.535c-0.517,2.462-1.443,4.408-2.795,5.9
		c-0.038,0.042-0.074,0.081-0.111,0.123c-0.032,0.052-0.05,0.112-0.05,0.175c0,0.145,0.087,0.269,0.211,0.325
		c0.04,0.01,0.078,0.02,0.119,0.03c0.489,0.121,0.954,0.272,1.388,0.462c1.016,0.442,1.993,1.229,2.896,2.34
		c0.628,0.75,1.21,1.584,1.762,2.457c0.022,0.037,0.045,0.074,0.068,0.11c0.065,0.072,0.159,0.117,0.264,0.117
		c0.042,0,0.083-0.009,0.121-0.023c0.032-0.018,0.066-0.036,0.099-0.056c0.965-0.554,1.885-1.215,2.745-2.007
		c1.677-1.532,3.064-3.374,4.126-5.473c1.047-2.044,1.68-4.443,1.879-7.127C83.086,19.852,82.831,17.457,82.15,15.094z"/>
	<path fill="#C83579" d="M67.354,17.215c-0.006-0.024-0.014-0.05-0.02-0.076c-0.502-1.881-1.296-3.692-2.388-5.391
		c-1.225-1.928-2.97-3.685-5.197-5.227c-1.954-1.349-4.155-2.339-6.554-2.953c-0.033-0.009-0.068-0.018-0.1-0.025
		c-0.014-0.002-0.026-0.005-0.04-0.005c-0.151,0-0.28,0.095-0.333,0.228c-0.006,0.039-0.015,0.076-0.022,0.115
		c-0.41,1.988-2.244,13.39-2.287,13.875c-0.006,0.026-0.011,0.053-0.011,0.08c0,0.005,0.002,0.009,0.002,0.014
		c0.005,0.132,0.082,0.247,0.196,0.303c0.037,0.013,0.075,0.024,0.114,0.036c0.629,0.193,1.249,0.418,1.848,0.691
		c2.589,1.171,4.432,2.7,5.592,4.644c0.016,0.025,0.033,0.052,0.05,0.079c0.063,0.084,0.164,0.137,0.279,0.137
		c0.099,0,0.187-0.041,0.252-0.105c0.016-0.022,0.034-0.043,0.05-0.065c0.314-0.408,0.678-0.811,1.102-1.206
		c1.062-1.005,2.273-1.948,3.589-2.796c0.965-0.615,2.196-1.275,3.661-1.968c0.005-0.003,0.01-0.005,0.017-0.007
		c0.121-0.058,0.206-0.181,0.206-0.324C67.359,17.249,67.356,17.233,67.354,17.215z"/>
</g>
<rect x="1254.52" y="-4576.34" fill="none" width="168.013" height="68.247"/>
<text transform="matrix(1 0 0 1 1259.3723 -4554.8804)" fill="#585757" font-family="'Panton-SemiBold'" font-size="29">MÁS CERCA</text>
<g>
	<text transform="matrix(1 0 0 1 4206.0469 -5856.896)" fill="#585757" font-family="'Panton-Regular'" font-size="14">Uniformes</text>
</g>
<g>
	<text transform="matrix(1 0 0 1 4206.0469 -5827.8013)" fill="#585757" font-family="'Panton-Regular'" font-size="14">Higiene urbana</text>
</g>
</svg>
